<?xml version="1.0" standalone="no"?>
<!DOCTYPE svg PUBLIC "-//W3C//DTD SVG 20010904//EN"
 "http://www.w3.org/TR/2001/REC-SVG-20010904/DTD/svg10.dtd">
<svg version="1.0" xmlns="http://www.w3.org/2000/svg"
 width="1080.000000pt" height="1080.000000pt" viewBox="0 0 1080.000000 1080.000000"
 preserveAspectRatio="xMidYMid meet">

<g transform="translate(0.000000,1080.000000) scale(0.100000,-0.100000)"
fill="#000000" stroke="none">
<path d="M3165 8026 c-42 -18 -93 -79 -101 -121 -11 -60 4 -106 50 -151 72
-72 160 -72 232 0 67 67 72 154 11 223 -52 60 -125 78 -192 49z"/>
<path d="M4125 8026 c-42 -18 -93 -79 -101 -121 -11 -60 4 -106 50 -151 72
-72 160 -72 232 0 67 67 72 154 11 223 -52 60 -125 78 -192 49z"/>
<path d="M3080 5690 l0 -2000 2430 0 2430 0 0 2000 0 2000 -2430 0 -2430 0 0
-2000z m964 1383 c34 -32 68 -69 77 -83 9 -14 90 -97 180 -185 365 -357 779
-777 779 -790 0 -5 -64 -75 -143 -155 -345 -349 -482 -485 -627 -627 -85 -83
-193 -192 -238 -242 -46 -50 -88 -91 -94 -91 -18 0 -376 344 -377 363 -1 10
60 76 146 160 218 210 583 582 583 593 0 3 -40 44 -90 91 -49 47 -99 100 -109
117 -11 17 -134 141 -273 276 -139 134 -256 250 -260 256 -7 11 64 85 282 293
47 44 89 81 94 81 5 0 37 -26 70 -57z m2536 -927 c0 -23 -17 -36 -46 -36 -27
0 -34 4 -34 20 0 17 7 20 40 20 22 0 40 -2 40 -4z m147 -18 c-3 -13 -15 -78
-28 -145 l-23 -123 -39 0 c-38 0 -39 1 -34 28 3 15 16 80 28 145 l23 117 39 0
c35 0 39 -2 34 -22z m823 -2 c0 -20 -27 -167 -45 -243 -5 -22 -11 -23 -85 -23
-72 0 -81 2 -95 23 -14 21 -14 32 -1 93 18 83 46 114 106 114 35 0 39 3 45 30
6 26 11 30 41 30 29 0 34 -3 34 -24z m-2112 -48 c7 -7 12 -25 12 -40 0 -32
-25 -38 -45 -11 -18 25 -42 9 -49 -34 -4 -21 -10 -48 -13 -60 -4 -19 -1 -23
16 -23 12 0 24 7 27 15 8 21 44 19 44 -2 0 -9 -10 -27 -22 -40 -31 -33 -111
-33 -133 0 -23 35 3 152 40 184 29 26 102 32 123 11z m276 -7 c16 -18 17 -27
6 -92 -17 -98 -38 -119 -119 -119 -91 0 -103 21 -80 131 16 76 44 99 117 99
46 0 63 -4 76 -19z m402 -6 c13 -21 13 -33 -2 -114 l-18 -91 -38 0 c-43 0 -43
-1 -23 90 19 85 18 90 -5 90 -19 0 -28 -22 -45 -110 -13 -67 -14 -70 -51 -70
-39 0 -40 2 -20 103 7 39 9 70 4 73 -19 12 -36 -6 -43 -43 -24 -133 -24 -133
-59 -133 -18 0 -35 2 -38 5 -4 5 26 177 37 212 2 8 47 11 145 11 136 0 142 -1
156 -23z m268 9 c19 -18 20 -42 5 -117 -14 -68 -35 -90 -97 -97 -42 -4 -47 -8
-50 -32 -3 -25 -7 -28 -44 -28 -36 0 -40 2 -35 23 3 12 15 77 28 145 l23 122
77 0 c57 0 82 -4 93 -16z m175 -6 c0 -13 -8 -63 -17 -113 l-17 -90 -38 -3
c-27 -2 -37 1 -37 11 0 13 19 117 36 195 3 18 11 22 39 22 30 0 35 -3 34 -22z
m405 6 c23 -22 21 -57 -9 -191 -5 -22 -11 -23 -85 -23 -70 0 -81 2 -94 22 -23
33 -20 56 13 89 23 23 39 29 70 29 34 0 41 3 41 20 0 25 -45 28 -71 4 -10 -9
-25 -14 -34 -10 -14 5 -14 9 -1 35 19 36 27 39 98 40 39 1 61 -4 72 -15z m282
-8 c14 -22 13 -33 -2 -115 l-18 -91 -38 0 c-21 0 -38 1 -38 3 0 1 7 37 15 80
19 99 19 97 -5 97 -21 0 -22 -3 -43 -110 l-13 -65 -37 -3 c-44 -4 -44 -7 -17
123 11 53 20 99 20 100 0 2 36 4 80 4 73 0 81 -2 96 -23z m548 5 c16 -18 17
-27 6 -92 -17 -98 -38 -119 -119 -119 -91 0 -103 21 -80 131 16 76 44 99 117
99 46 0 63 -4 76 -19z m-1206 -813 c18 -18 17 -342 -2 -357 -9 -8 -215 -10
-752 -9 l-739 3 -3 174 c-2 119 1 178 9 187 16 19 1468 21 1487 2z"/>
<path d="M7411 6018 c-5 -13 -12 -42 -16 -65 -6 -39 -5 -43 14 -43 15 0 23 9
30 38 23 92 23 92 1 92 -12 0 -24 -9 -29 -22z"/>
<path d="M5612 6027 c-6 -7 -14 -36 -18 -65 -5 -44 -4 -52 9 -52 21 0 33 24
42 83 6 38 4 47 -8 47 -8 0 -19 -6 -25 -13z"/>
<path d="M6281 6018 c-5 -13 -12 -42 -16 -65 -6 -39 -5 -43 14 -43 21 0 41 48
41 103 0 34 -27 37 -39 5z"/>
<path d="M6846 5934 c-9 -23 -8 -24 13 -24 16 0 31 18 31 36 0 12 -39 2 -44
-12z"/>
<path d="M7692 6027 c-6 -7 -14 -36 -18 -65 -5 -44 -4 -52 9 -52 21 0 33 24
42 83 6 38 4 47 -8 47 -8 0 -19 -6 -25 -13z"/>
</g>
</svg>
